<svg width="21" height="21" viewBox="0 0 21 21" fill="none" xmlns="http://www.w3.org/2000/svg">
<path d="M20.5654 6.34314C20.554 5.49109 20.3945 4.64751 20.094 3.85014C19.8334 3.17756 19.4353 2.56674 18.9253 2.0567C18.4153 1.54666 17.8044 1.14862 17.1319 0.888013C16.3447 0.592539 15.5132 0.432772 14.6726 0.415513C13.5904 0.367138 13.2472 0.353638 10.5 0.353638C7.75274 0.353638 7.40061 0.353638 6.32624 0.415513C5.48604 0.432899 4.65488 0.592664 3.86811 0.888013C3.19543 1.14844 2.58451 1.54641 2.07445 2.05647C1.56439 2.56654 1.16641 3.17745 0.905988 3.85014C0.609922 4.63666 0.450501 5.46801 0.434613 6.30826C0.386238 7.39164 0.371613 7.73476 0.371613 10.482C0.371613 13.2293 0.371613 13.5803 0.434613 14.6558C0.451488 15.4973 0.610112 16.3275 0.905988 17.1161C1.16685 17.7886 1.56512 18.3993 2.07535 18.9091C2.58559 19.419 3.19656 19.8168 3.86924 20.0771C4.65385 20.3845 5.48516 20.5557 6.32736 20.5834C7.41074 20.6318 7.75386 20.6464 10.5011 20.6464C13.2484 20.6464 13.6005 20.6464 14.6749 20.5834C15.5154 20.5668 16.347 20.4074 17.1341 20.112C17.8065 19.8511 18.4172 19.453 18.9272 18.943C19.4372 18.433 19.8353 17.8223 20.0962 17.1499C20.3921 16.3624 20.5507 15.5321 20.5676 14.6895C20.616 13.6073 20.6306 13.2641 20.6306 10.5158C20.6284 7.76851 20.6284 7.41976 20.5654 6.34314ZM10.4932 15.6773C7.61999 15.6773 5.29236 13.3496 5.29236 10.4764C5.29236 7.60314 7.61999 5.27551 10.4932 5.27551C11.8726 5.27551 13.1955 5.82346 14.1708 6.79881C15.1462 7.77417 15.6941 9.09703 15.6941 10.4764C15.6941 11.8557 15.1462 13.1786 14.1708 14.154C13.1955 15.1293 11.8726 15.6773 10.4932 15.6773ZM15.9011 6.29589C15.7418 6.29604 15.584 6.26477 15.4368 6.20387C15.2896 6.14298 15.1559 6.05366 15.0432 5.94101C14.9306 5.82837 14.8413 5.69462 14.7804 5.54741C14.7195 5.40021 14.6882 5.24244 14.6884 5.08314C14.6884 4.92395 14.7197 4.76632 14.7806 4.61925C14.8416 4.47218 14.9308 4.33855 15.0434 4.22599C15.156 4.11343 15.2896 4.02414 15.4367 3.96322C15.5837 3.9023 15.7414 3.87095 15.9006 3.87095C16.0597 3.87095 16.2174 3.9023 16.3644 3.96322C16.5115 4.02414 16.6451 4.11343 16.7577 4.22599C16.8703 4.33855 16.9595 4.47218 17.0205 4.61925C17.0814 4.76632 17.1127 4.92395 17.1127 5.08314C17.1127 5.75364 16.5705 6.29589 15.9011 6.29589Z" fill="#707070"/>
</svg>
