<svg width="25" height="25" viewBox="0 0 25 25" fill="none" xmlns="http://www.w3.org/2000/svg">
<path d="M12.5177 0C5.62084 0 0.0302124 5.59063 0.0302124 12.4865C0.0302124 17.7771 3.3198 22.2958 7.96563 24.1135C7.85625 23.125 7.75834 21.6104 8.00834 20.5312C8.23646 19.5552 9.47292 14.326 9.47292 14.326C9.47292 14.326 9.09896 13.576 9.09896 12.4708C9.09896 10.7385 10.1063 9.43854 11.3573 9.43854C12.424 9.43854 12.9385 10.2396 12.9385 11.1969C12.9385 12.2687 12.2583 13.8708 11.9052 15.3552C11.6083 16.5979 12.5302 17.6104 13.7542 17.6104C15.9708 17.6104 17.6792 15.2719 17.6792 11.8948C17.6792 8.91458 15.5302 6.82292 12.4625 6.82292C8.91042 6.82292 6.82813 9.49167 6.82813 12.2385C6.82813 13.3146 7.23855 14.4708 7.75417 15.0937C7.8573 15.2187 7.87084 15.3281 7.84271 15.4531C7.74896 15.8437 7.5375 16.7021 7.4948 16.8729C7.43959 17.1073 7.31563 17.1552 7.07709 17.0448C5.5198 16.326 4.54271 14.0469 4.54271 12.2052C4.54271 8.27187 7.40521 4.65104 12.7927 4.65104C17.124 4.65104 20.4927 7.74167 20.4927 11.8625C20.4927 16.1698 17.7771 19.6354 14 19.6354C12.7354 19.6354 11.5479 18.9802 11.1271 18.199L10.3469 21.1656C10.0667 22.2542 9.30105 23.6156 8.78646 24.4427C9.95625 24.8021 11.1885 25 12.4844 25C19.3667 25 24.9688 19.4115 24.9688 12.5135C24.9688 5.61458 19.3667 0.0270833 12.4844 0.0270833L12.5177 0Z" fill="#707070"/>
</svg>
