<svg width="25" height="21" viewBox="0 0 25 21" fill="none" xmlns="http://www.w3.org/2000/svg">
<path d="M24.951 2.76041C24.0151 3.17249 23.0235 3.44451 22.0083 3.5677C23.0772 2.92525 23.8775 1.91774 24.2615 0.731239C23.2708 1.30936 22.1729 1.7302 21.0042 1.96457C20.2331 1.14002 19.2113 0.593136 18.0975 0.408845C16.9838 0.224553 15.8403 0.413167 14.8447 0.945396C13.8491 1.47763 13.0571 2.32369 12.5917 3.3522C12.1263 4.38071 12.0135 5.53412 12.2708 6.63332C8.01042 6.43228 4.23646 4.38541 1.70833 1.29374C1.24874 2.07479 1.00902 2.96564 1.01458 3.87186C1.01458 5.65311 1.92083 7.21874 3.29375 8.13853C2.48006 8.11263 1.68435 7.89263 0.972917 7.49686V7.55936C0.972455 8.7431 1.38153 9.89055 2.13074 10.807C2.87994 11.7235 3.92314 12.3526 5.08333 12.5875C4.33156 12.7889 3.54418 12.8192 2.77917 12.676C3.10846 13.6948 3.74757 14.5853 4.60731 15.2234C5.46705 15.8615 6.50453 16.2153 7.575 16.2354C5.76201 17.6583 3.52341 18.4305 1.21875 18.4281C0.8125 18.4281 0.407292 18.4042 0 18.3583C2.3497 19.8628 5.08178 20.6614 7.87187 20.6594C17.3021 20.6594 22.4531 12.851 22.4531 6.09166C22.4531 5.87291 22.4531 5.65416 22.4375 5.43541C23.4437 4.7113 24.3117 3.8123 25 2.78124L24.951 2.76041Z" fill="#707070"/>
</svg>
